<mxfile host="Electron" agent="Mozilla/5.0 (Windows NT 10.0; Win64; x64) AppleWebKit/537.36 (KHTML, like Gecko) draw.io/27.0.9 Chrome/134.0.6998.205 Electron/35.4.0 Safari/537.36" version="27.0.9">
  <diagram name="Página-1" id="n-ZbZtPQHOzTqEBtwey1">
    <mxGraphModel dx="1509" dy="2010" grid="1" gridSize="10" guides="1" tooltips="1" connect="1" arrows="1" fold="1" page="1" pageScale="1" pageWidth="827" pageHeight="1169" math="0" shadow="0">
      <root>
        <mxCell id="0" />
        <mxCell id="1" parent="0" />
        <mxCell id="eps6AfnzonoT5UigWoyc-7" value="&lt;h6&gt;&lt;font style=&quot;font-size: 14px;&quot; face=&quot;Helvetica&quot;&gt;&lt;font style=&quot;color: light-dark(rgb(255, 255, 255), rgb(178, 102, 255));&quot;&gt;Operador&lt;/font&gt;&lt;/font&gt;&lt;br&gt;&lt;/h6&gt;" style="rounded=0;whiteSpace=wrap;html=1;spacingTop=0;fillColor=light-dark(#FFFFFF,#000000);strokeColor=light-dark(#FFFFFF,#B266FF);" vertex="1" parent="1">
          <mxGeometry x="130" y="-1080" width="120" height="60" as="geometry" />
        </mxCell>
        <mxCell id="eps6AfnzonoT5UigWoyc-8" value="&lt;h6&gt;&lt;font style=&quot;font-size: 14px; color: light-dark(rgb(255, 255, 255), rgb(178, 102, 255));&quot;&gt;Supervisor&lt;/font&gt;&lt;br&gt;&lt;/h6&gt;" style="rounded=0;whiteSpace=wrap;html=1;spacingTop=0;fillColor=light-dark(#FFFFFF,#000000);strokeColor=light-dark(#FFFFFF,#B266FF);" vertex="1" parent="1">
          <mxGeometry x="130" y="-980" width="120" height="60" as="geometry" />
        </mxCell>
        <mxCell id="eps6AfnzonoT5UigWoyc-9" value="&lt;h6&gt;&lt;font style=&quot;color: light-dark(rgb(255, 255, 255), rgb(178, 102, 255));&quot;&gt;&lt;font style=&quot;font-size: 14px;&quot;&gt;Administrador&lt;/font&gt;&lt;/font&gt;&lt;br&gt;&lt;/h6&gt;" style="rounded=0;whiteSpace=wrap;html=1;spacingTop=0;fillColor=light-dark(#FFFFFF,#000000);strokeColor=light-dark(#FFFFFF,#B266FF);" vertex="1" parent="1">
          <mxGeometry x="130" y="-880" width="120" height="60" as="geometry" />
        </mxCell>
        <mxCell id="eps6AfnzonoT5UigWoyc-10" value="" style="endArrow=classic;html=1;rounded=0;exitX=1;exitY=0.5;exitDx=0;exitDy=0;spacingTop=0;" edge="1" parent="1" source="eps6AfnzonoT5UigWoyc-7">
          <mxGeometry width="50" height="50" relative="1" as="geometry">
            <mxPoint x="370" y="-760" as="sourcePoint" />
            <mxPoint x="310" y="-1050" as="targetPoint" />
          </mxGeometry>
        </mxCell>
        <mxCell id="eps6AfnzonoT5UigWoyc-11" value="" style="endArrow=classic;html=1;rounded=0;exitX=1;exitY=0.5;exitDx=0;exitDy=0;spacingTop=0;" edge="1" parent="1" source="eps6AfnzonoT5UigWoyc-8">
          <mxGeometry width="50" height="50" relative="1" as="geometry">
            <mxPoint x="310" y="-940" as="sourcePoint" />
            <mxPoint x="310" y="-950" as="targetPoint" />
          </mxGeometry>
        </mxCell>
        <mxCell id="eps6AfnzonoT5UigWoyc-12" value="" style="endArrow=none;html=1;rounded=0;exitX=1;exitY=0.5;exitDx=0;exitDy=0;spacingTop=0;" edge="1" parent="1" source="eps6AfnzonoT5UigWoyc-9">
          <mxGeometry width="50" height="50" relative="1" as="geometry">
            <mxPoint x="370" y="-760" as="sourcePoint" />
            <mxPoint x="280" y="-850" as="targetPoint" />
          </mxGeometry>
        </mxCell>
        <mxCell id="eps6AfnzonoT5UigWoyc-13" value="" style="endArrow=none;html=1;rounded=0;spacingTop=0;" edge="1" parent="1">
          <mxGeometry width="50" height="50" relative="1" as="geometry">
            <mxPoint x="280" y="-360" as="sourcePoint" />
            <mxPoint x="280" y="-1050" as="targetPoint" />
            <Array as="points" />
          </mxGeometry>
        </mxCell>
        <mxCell id="eps6AfnzonoT5UigWoyc-14" value="&lt;h6&gt;&lt;font style=&quot;font-size: 11px;&quot; face=&quot;Helvetica&quot;&gt;Autenticar Usuário&lt;/font&gt;&lt;/h6&gt;" style="ellipse;whiteSpace=wrap;html=1;spacingTop=0;strokeColor=light-dark(#000000,#00994D);fillColor=light-dark(#FFFFFF,#000000);" vertex="1" parent="1">
          <mxGeometry x="311" y="-1080" width="120" height="60" as="geometry" />
        </mxCell>
        <mxCell id="eps6AfnzonoT5UigWoyc-15" value="" style="edgeStyle=orthogonalEdgeStyle;rounded=0;orthogonalLoop=1;jettySize=auto;html=1;" edge="1" parent="1" source="eps6AfnzonoT5UigWoyc-16" target="eps6AfnzonoT5UigWoyc-19">
          <mxGeometry relative="1" as="geometry" />
        </mxCell>
        <mxCell id="eps6AfnzonoT5UigWoyc-16" value="&lt;b style=&quot;&quot;&gt;&lt;font style=&quot;font-size: 12px;&quot;&gt;Gerenciar Tarefas&lt;/font&gt;&lt;/b&gt;" style="ellipse;whiteSpace=wrap;html=1;spacingTop=0;strokeColor=light-dark(#000000,#00994D);fillColor=light-dark(#FFFFFF,#000000);" vertex="1" parent="1">
          <mxGeometry x="311" y="-980" width="120" height="60" as="geometry" />
        </mxCell>
        <mxCell id="eps6AfnzonoT5UigWoyc-17" value="" style="endArrow=none;html=1;rounded=0;exitX=1;exitY=0.5;exitDx=0;exitDy=0;spacingTop=0;" edge="1" parent="1">
          <mxGeometry width="50" height="50" relative="1" as="geometry">
            <mxPoint x="430" y="-950.34" as="sourcePoint" />
            <mxPoint x="460" y="-950" as="targetPoint" />
          </mxGeometry>
        </mxCell>
        <mxCell id="eps6AfnzonoT5UigWoyc-18" value="" style="endArrow=none;html=1;rounded=0;spacingTop=0;" edge="1" parent="1">
          <mxGeometry width="50" height="50" relative="1" as="geometry">
            <mxPoint x="460" y="-860" as="sourcePoint" />
            <mxPoint x="460" y="-1050" as="targetPoint" />
          </mxGeometry>
        </mxCell>
        <mxCell id="eps6AfnzonoT5UigWoyc-19" value="&lt;font style=&quot;font-weight: 700; font-size: 14px;&quot; face=&quot;Helvetica&quot;&gt;Criar Tarefa&lt;/font&gt;" style="ellipse;whiteSpace=wrap;html=1;spacingTop=0;strokeColor=light-dark(#000000,#00994D);fillColor=light-dark(#FFFFFF,#000000);" vertex="1" parent="1">
          <mxGeometry x="491" y="-980" width="120" height="60" as="geometry" />
        </mxCell>
        <mxCell id="eps6AfnzonoT5UigWoyc-20" value="&lt;font style=&quot;font-weight: 700;&quot; face=&quot;Helvetica&quot;&gt;Editar Tarefa&lt;/font&gt;" style="ellipse;whiteSpace=wrap;html=1;spacingTop=0;strokeColor=light-dark(#000000,#00994D);fillColor=light-dark(#FFFFFF,#000000);" vertex="1" parent="1">
          <mxGeometry x="491" y="-1080" width="120" height="60" as="geometry" />
        </mxCell>
        <mxCell id="eps6AfnzonoT5UigWoyc-21" value="&lt;font style=&quot;font-weight: 700; font-size: 13px;&quot; face=&quot;Helvetica&quot;&gt;Excluir Tarefa&lt;/font&gt;" style="ellipse;whiteSpace=wrap;html=1;spacingTop=0;strokeColor=light-dark(#000000,#00994D);fillColor=light-dark(#FFFFFF,#000000);" vertex="1" parent="1">
          <mxGeometry x="491" y="-890" width="120" height="60" as="geometry" />
        </mxCell>
        <mxCell id="eps6AfnzonoT5UigWoyc-22" value="" style="endArrow=classic;html=1;rounded=0;spacingTop=0;entryX=0;entryY=0.5;entryDx=0;entryDy=0;" edge="1" parent="1" target="eps6AfnzonoT5UigWoyc-21">
          <mxGeometry width="50" height="50" relative="1" as="geometry">
            <mxPoint x="460" y="-860" as="sourcePoint" />
            <mxPoint x="490" y="-750" as="targetPoint" />
          </mxGeometry>
        </mxCell>
        <mxCell id="eps6AfnzonoT5UigWoyc-23" value="" style="endArrow=classic;html=1;rounded=0;entryX=0;entryY=0.5;entryDx=0;entryDy=0;spacingTop=0;" edge="1" parent="1" target="eps6AfnzonoT5UigWoyc-20">
          <mxGeometry width="50" height="50" relative="1" as="geometry">
            <mxPoint x="460" y="-1050" as="sourcePoint" />
            <mxPoint x="480" y="-1100" as="targetPoint" />
          </mxGeometry>
        </mxCell>
        <mxCell id="eps6AfnzonoT5UigWoyc-24" value="&lt;font style=&quot;font-weight: 700;&quot; face=&quot;Helvetica&quot;&gt;Visualizar Dashboard&lt;/font&gt;" style="ellipse;whiteSpace=wrap;html=1;spacingTop=0;strokeColor=light-dark(#000000,#00994D);fillColor=light-dark(#FFFFFF,#000000);" vertex="1" parent="1">
          <mxGeometry x="311" y="-770" width="120" height="60" as="geometry" />
        </mxCell>
        <mxCell id="eps6AfnzonoT5UigWoyc-25" value="&lt;b style=&quot;&quot;&gt;&lt;font style=&quot;font-size: 11px;&quot;&gt;Atualizar Status de Tarefa&lt;/font&gt;&lt;/b&gt;" style="ellipse;whiteSpace=wrap;html=1;spacingTop=0;strokeColor=light-dark(#000000,#00994D);fillColor=light-dark(#FFFFFF,#000000);" vertex="1" parent="1">
          <mxGeometry x="311" y="-680" width="120" height="60" as="geometry" />
        </mxCell>
        <mxCell id="eps6AfnzonoT5UigWoyc-26" value="&lt;font&gt;&lt;font style=&quot;font-weight: 700;&quot; face=&quot;Helvetica&quot;&gt;Gerenciar&amp;nbsp;&lt;/font&gt;&lt;span style=&quot;font-weight: 700;&quot;&gt;Usuário&lt;/span&gt;&lt;/font&gt;" style="ellipse;whiteSpace=wrap;html=1;spacingTop=0;strokeColor=light-dark(#000000,#00994D);fillColor=light-dark(#FFFFFF,#000000);" vertex="1" parent="1">
          <mxGeometry x="311" y="-590" width="120" height="60" as="geometry" />
        </mxCell>
        <mxCell id="eps6AfnzonoT5UigWoyc-27" value="&lt;font style=&quot;font-weight: 700; font-size: 10px;&quot; face=&quot;Helvetica&quot;&gt;Visualizar Notificações&lt;/font&gt;" style="ellipse;whiteSpace=wrap;html=1;spacingTop=0;strokeColor=light-dark(#000000,#00994D);fillColor=light-dark(#FFFFFF,#000000);" vertex="1" parent="1">
          <mxGeometry x="311" y="-490" width="120" height="60" as="geometry" />
        </mxCell>
        <mxCell id="eps6AfnzonoT5UigWoyc-28" value="&lt;font style=&quot;font-weight: 700; font-size: 11px;&quot; face=&quot;Helvetica&quot;&gt;Gerar Relatórios&lt;/font&gt;" style="ellipse;whiteSpace=wrap;html=1;spacingTop=0;strokeColor=light-dark(#000000,#00994D);fillColor=light-dark(#FFFFFF,#000000);" vertex="1" parent="1">
          <mxGeometry x="311" y="-390" width="120" height="60" as="geometry" />
        </mxCell>
        <mxCell id="eps6AfnzonoT5UigWoyc-29" value="" style="endArrow=classic;html=1;rounded=0;entryX=0;entryY=0.5;entryDx=0;entryDy=0;spacingTop=0;" edge="1" parent="1" target="eps6AfnzonoT5UigWoyc-24">
          <mxGeometry width="50" height="50" relative="1" as="geometry">
            <mxPoint x="280" y="-740" as="sourcePoint" />
            <mxPoint x="440" y="-570" as="targetPoint" />
            <Array as="points">
              <mxPoint x="300" y="-740" />
            </Array>
          </mxGeometry>
        </mxCell>
        <mxCell id="eps6AfnzonoT5UigWoyc-30" value="" style="endArrow=classic;html=1;rounded=0;entryX=0;entryY=0.5;entryDx=0;entryDy=0;spacingTop=0;" edge="1" parent="1" target="eps6AfnzonoT5UigWoyc-25">
          <mxGeometry width="50" height="50" relative="1" as="geometry">
            <mxPoint x="280" y="-650" as="sourcePoint" />
            <mxPoint x="320" y="-650" as="targetPoint" />
            <Array as="points" />
          </mxGeometry>
        </mxCell>
        <mxCell id="eps6AfnzonoT5UigWoyc-31" value="" style="endArrow=classic;html=1;rounded=0;entryX=0;entryY=0.5;entryDx=0;entryDy=0;spacingTop=0;" edge="1" parent="1" target="eps6AfnzonoT5UigWoyc-26">
          <mxGeometry width="50" height="50" relative="1" as="geometry">
            <mxPoint x="280" y="-560" as="sourcePoint" />
            <mxPoint x="320" y="-550" as="targetPoint" />
            <Array as="points" />
          </mxGeometry>
        </mxCell>
        <mxCell id="eps6AfnzonoT5UigWoyc-32" value="" style="endArrow=classic;html=1;rounded=0;spacingTop=0;" edge="1" parent="1">
          <mxGeometry width="50" height="50" relative="1" as="geometry">
            <mxPoint x="280" y="-460" as="sourcePoint" />
            <mxPoint x="310" y="-460" as="targetPoint" />
            <Array as="points" />
          </mxGeometry>
        </mxCell>
        <mxCell id="eps6AfnzonoT5UigWoyc-33" value="" style="endArrow=classic;html=1;rounded=0;spacingTop=0;" edge="1" parent="1">
          <mxGeometry width="50" height="50" relative="1" as="geometry">
            <mxPoint x="280" y="-360" as="sourcePoint" />
            <mxPoint x="310" y="-360" as="targetPoint" />
            <Array as="points" />
          </mxGeometry>
        </mxCell>
        <mxCell id="eps6AfnzonoT5UigWoyc-36" value="&lt;span style=&quot;font-family: Arial, sans-serif; text-align: start;&quot;&gt;&lt;font style=&quot;color: rgb(238, 245, 255);&quot;&gt;🎯 Diagrama de Casos de Uso -&amp;nbsp;&lt;/font&gt;&lt;/span&gt;&lt;font face=&quot;Arial, sans-serif&quot; color=&quot;#eef5ff&quot;&gt;Sistema de Gerenciamento de Tarefas&lt;/font&gt;" style="text;strokeColor=none;fillColor=none;html=1;fontSize=24;fontStyle=1;verticalAlign=middle;align=center;" vertex="1" parent="1">
          <mxGeometry x="9" y="-1160" width="810" height="40" as="geometry" />
        </mxCell>
      </root>
    </mxGraphModel>
  </diagram>
</mxfile>
